<mxfile host="Electron" modified="2024-11-01T14:38:13.754Z" agent="Mozilla/5.0 (Windows NT 10.0; Win64; x64) AppleWebKit/537.36 (KHTML, like Gecko) draw.io/24.4.8 Chrome/124.0.6367.207 Electron/30.0.6 Safari/537.36" etag="0ip25Q4lvabVE7PYH7GO" version="24.4.8" type="device">
  <diagram name="Page-1" id="EfAw8laBPQWMsCW0vwPY">
    <mxGraphModel dx="1478" dy="849" grid="1" gridSize="10" guides="1" tooltips="1" connect="1" arrows="1" fold="1" page="1" pageScale="1" pageWidth="2336" pageHeight="1654" math="0" shadow="0">
      <root>
        <mxCell id="0" />
        <mxCell id="1" parent="0" />
        <mxCell id="gplAhbZoMSeWkt-ECcsY-25" style="edgeStyle=orthogonalEdgeStyle;rounded=0;orthogonalLoop=1;jettySize=auto;html=1;" edge="1" parent="1" source="gplAhbZoMSeWkt-ECcsY-5" target="gplAhbZoMSeWkt-ECcsY-9">
          <mxGeometry relative="1" as="geometry" />
        </mxCell>
        <mxCell id="gplAhbZoMSeWkt-ECcsY-44" value="&lt;font style=&quot;font-size: 12px;&quot;&gt;1..*&lt;/font&gt;" style="edgeLabel;html=1;align=center;verticalAlign=middle;resizable=0;points=[];fontFamily=Helvetica;fontSize=11;fontColor=default;labelBackgroundColor=default;" vertex="1" connectable="0" parent="gplAhbZoMSeWkt-ECcsY-25">
          <mxGeometry x="0.7633" y="1" relative="1" as="geometry">
            <mxPoint x="14" y="-5" as="offset" />
          </mxGeometry>
        </mxCell>
        <mxCell id="gplAhbZoMSeWkt-ECcsY-5" value="&lt;b&gt;Experiment&lt;/b&gt;" style="swimlane;fontStyle=0;childLayout=stackLayout;horizontal=1;startSize=40;fillColor=none;horizontalStack=0;resizeParent=1;resizeParentMax=0;resizeLast=0;collapsible=1;marginBottom=0;whiteSpace=wrap;html=1;" vertex="1" parent="1">
          <mxGeometry x="1240" y="680" width="120" height="40" as="geometry" />
        </mxCell>
        <mxCell id="gplAhbZoMSeWkt-ECcsY-26" style="edgeStyle=orthogonalEdgeStyle;rounded=0;orthogonalLoop=1;jettySize=auto;html=1;" edge="1" parent="1" source="gplAhbZoMSeWkt-ECcsY-9" target="gplAhbZoMSeWkt-ECcsY-10">
          <mxGeometry relative="1" as="geometry" />
        </mxCell>
        <mxCell id="gplAhbZoMSeWkt-ECcsY-35" style="edgeStyle=elbowEdgeStyle;rounded=0;orthogonalLoop=1;jettySize=auto;html=1;elbow=vertical;" edge="1" parent="1" source="gplAhbZoMSeWkt-ECcsY-9" target="gplAhbZoMSeWkt-ECcsY-17">
          <mxGeometry relative="1" as="geometry" />
        </mxCell>
        <mxCell id="gplAhbZoMSeWkt-ECcsY-36" style="edgeStyle=elbowEdgeStyle;rounded=0;orthogonalLoop=1;jettySize=auto;elbow=vertical;html=1;strokeColor=default;align=center;verticalAlign=middle;fontFamily=Helvetica;fontSize=11;fontColor=default;labelBackgroundColor=default;endArrow=classic;" edge="1" parent="1" source="gplAhbZoMSeWkt-ECcsY-9" target="gplAhbZoMSeWkt-ECcsY-14">
          <mxGeometry relative="1" as="geometry" />
        </mxCell>
        <mxCell id="gplAhbZoMSeWkt-ECcsY-37" style="edgeStyle=elbowEdgeStyle;rounded=0;orthogonalLoop=1;jettySize=auto;elbow=vertical;html=1;strokeColor=default;align=center;verticalAlign=middle;fontFamily=Helvetica;fontSize=11;fontColor=default;labelBackgroundColor=default;endArrow=classic;" edge="1" parent="1" source="gplAhbZoMSeWkt-ECcsY-9" target="gplAhbZoMSeWkt-ECcsY-23">
          <mxGeometry relative="1" as="geometry" />
        </mxCell>
        <mxCell id="gplAhbZoMSeWkt-ECcsY-38" style="edgeStyle=elbowEdgeStyle;rounded=0;orthogonalLoop=1;jettySize=auto;elbow=vertical;html=1;strokeColor=default;align=center;verticalAlign=middle;fontFamily=Helvetica;fontSize=11;fontColor=default;labelBackgroundColor=default;endArrow=classic;" edge="1" parent="1" source="gplAhbZoMSeWkt-ECcsY-9" target="gplAhbZoMSeWkt-ECcsY-24">
          <mxGeometry relative="1" as="geometry" />
        </mxCell>
        <mxCell id="gplAhbZoMSeWkt-ECcsY-45" value="&lt;font style=&quot;font-size: 12px;&quot;&gt;1..*&lt;/font&gt;" style="edgeLabel;html=1;align=center;verticalAlign=middle;resizable=0;points=[];fontFamily=Helvetica;fontSize=11;fontColor=default;labelBackgroundColor=default;" vertex="1" connectable="0" parent="gplAhbZoMSeWkt-ECcsY-38">
          <mxGeometry x="0.9743" y="-1" relative="1" as="geometry">
            <mxPoint x="16" y="-1" as="offset" />
          </mxGeometry>
        </mxCell>
        <mxCell id="gplAhbZoMSeWkt-ECcsY-42" style="edgeStyle=elbowEdgeStyle;rounded=0;orthogonalLoop=1;jettySize=auto;elbow=vertical;html=1;strokeColor=default;align=center;verticalAlign=middle;fontFamily=Helvetica;fontSize=11;fontColor=default;labelBackgroundColor=default;endArrow=classic;" edge="1" parent="1" source="gplAhbZoMSeWkt-ECcsY-9" target="gplAhbZoMSeWkt-ECcsY-22">
          <mxGeometry relative="1" as="geometry">
            <Array as="points">
              <mxPoint x="1460" y="830" />
            </Array>
          </mxGeometry>
        </mxCell>
        <mxCell id="gplAhbZoMSeWkt-ECcsY-9" value="&lt;b&gt;Scenario&lt;/b&gt;" style="swimlane;fontStyle=0;childLayout=stackLayout;horizontal=1;startSize=40;fillColor=none;horizontalStack=0;resizeParent=1;resizeParentMax=0;resizeLast=0;collapsible=1;marginBottom=0;whiteSpace=wrap;html=1;" vertex="1" parent="1">
          <mxGeometry x="1240" y="760" width="120" height="40" as="geometry" />
        </mxCell>
        <mxCell id="gplAhbZoMSeWkt-ECcsY-27" style="edgeStyle=orthogonalEdgeStyle;rounded=0;orthogonalLoop=1;jettySize=auto;html=1;" edge="1" parent="1" source="gplAhbZoMSeWkt-ECcsY-10" target="gplAhbZoMSeWkt-ECcsY-11">
          <mxGeometry relative="1" as="geometry" />
        </mxCell>
        <mxCell id="gplAhbZoMSeWkt-ECcsY-39" style="edgeStyle=elbowEdgeStyle;rounded=0;orthogonalLoop=1;jettySize=auto;elbow=vertical;html=1;strokeColor=default;align=center;verticalAlign=middle;fontFamily=Helvetica;fontSize=11;fontColor=default;labelBackgroundColor=default;endArrow=classic;" edge="1" parent="1" source="gplAhbZoMSeWkt-ECcsY-10" target="gplAhbZoMSeWkt-ECcsY-12">
          <mxGeometry relative="1" as="geometry" />
        </mxCell>
        <mxCell id="gplAhbZoMSeWkt-ECcsY-40" style="edgeStyle=elbowEdgeStyle;rounded=0;orthogonalLoop=1;jettySize=auto;elbow=vertical;html=1;strokeColor=default;align=center;verticalAlign=middle;fontFamily=Helvetica;fontSize=11;fontColor=default;labelBackgroundColor=default;endArrow=classic;" edge="1" parent="1" source="gplAhbZoMSeWkt-ECcsY-10" target="gplAhbZoMSeWkt-ECcsY-18">
          <mxGeometry relative="1" as="geometry" />
        </mxCell>
        <mxCell id="gplAhbZoMSeWkt-ECcsY-41" style="edgeStyle=elbowEdgeStyle;rounded=0;orthogonalLoop=1;jettySize=auto;elbow=vertical;html=1;strokeColor=default;align=center;verticalAlign=middle;fontFamily=Helvetica;fontSize=11;fontColor=default;labelBackgroundColor=default;endArrow=classic;" edge="1" parent="1" source="gplAhbZoMSeWkt-ECcsY-10" target="gplAhbZoMSeWkt-ECcsY-19">
          <mxGeometry relative="1" as="geometry" />
        </mxCell>
        <mxCell id="gplAhbZoMSeWkt-ECcsY-10" value="&lt;b&gt;Survey&lt;/b&gt;" style="swimlane;fontStyle=0;childLayout=stackLayout;horizontal=1;startSize=40;fillColor=none;horizontalStack=0;resizeParent=1;resizeParentMax=0;resizeLast=0;collapsible=1;marginBottom=0;whiteSpace=wrap;html=1;" vertex="1" parent="1">
          <mxGeometry x="1240" y="860" width="120" height="40" as="geometry" />
        </mxCell>
        <mxCell id="gplAhbZoMSeWkt-ECcsY-32" style="edgeStyle=orthogonalEdgeStyle;rounded=0;orthogonalLoop=1;jettySize=auto;html=1;endArrow=block;endFill=0;" edge="1" parent="1" source="gplAhbZoMSeWkt-ECcsY-11" target="gplAhbZoMSeWkt-ECcsY-16">
          <mxGeometry relative="1" as="geometry">
            <Array as="points">
              <mxPoint x="1300" y="1140" />
            </Array>
          </mxGeometry>
        </mxCell>
        <mxCell id="gplAhbZoMSeWkt-ECcsY-11" value="&lt;b&gt;SurveyGenerator&lt;/b&gt;" style="swimlane;fontStyle=0;childLayout=stackLayout;horizontal=1;startSize=40;fillColor=none;horizontalStack=0;resizeParent=1;resizeParentMax=0;resizeLast=0;collapsible=1;marginBottom=0;whiteSpace=wrap;html=1;" vertex="1" parent="1">
          <mxGeometry x="1240" y="960" width="120" height="40" as="geometry" />
        </mxCell>
        <mxCell id="gplAhbZoMSeWkt-ECcsY-29" style="edgeStyle=orthogonalEdgeStyle;rounded=0;orthogonalLoop=1;jettySize=auto;html=1;" edge="1" parent="1" source="gplAhbZoMSeWkt-ECcsY-12" target="gplAhbZoMSeWkt-ECcsY-15">
          <mxGeometry relative="1" as="geometry" />
        </mxCell>
        <mxCell id="gplAhbZoMSeWkt-ECcsY-12" value="&lt;b&gt;FlightPath&lt;/b&gt;" style="swimlane;fontStyle=0;childLayout=stackLayout;horizontal=1;startSize=40;fillColor=none;horizontalStack=0;resizeParent=1;resizeParentMax=0;resizeLast=0;collapsible=1;marginBottom=0;whiteSpace=wrap;html=1;" vertex="1" parent="1">
          <mxGeometry x="1080" y="960" width="120" height="40" as="geometry" />
        </mxCell>
        <mxCell id="gplAhbZoMSeWkt-ECcsY-31" style="edgeStyle=orthogonalEdgeStyle;rounded=0;orthogonalLoop=1;jettySize=auto;html=1;endArrow=block;endFill=0;" edge="1" parent="1" source="gplAhbZoMSeWkt-ECcsY-13" target="gplAhbZoMSeWkt-ECcsY-16">
          <mxGeometry relative="1" as="geometry">
            <Array as="points">
              <mxPoint x="980" y="1140" />
            </Array>
          </mxGeometry>
        </mxCell>
        <mxCell id="gplAhbZoMSeWkt-ECcsY-13" value="&lt;b&gt;SceneGenerator&lt;/b&gt;" style="swimlane;fontStyle=0;childLayout=stackLayout;horizontal=1;startSize=40;fillColor=none;horizontalStack=0;resizeParent=1;resizeParentMax=0;resizeLast=0;collapsible=1;marginBottom=0;whiteSpace=wrap;html=1;" vertex="1" parent="1">
          <mxGeometry x="920" y="960" width="120" height="40" as="geometry" />
        </mxCell>
        <mxCell id="gplAhbZoMSeWkt-ECcsY-28" style="edgeStyle=orthogonalEdgeStyle;rounded=0;orthogonalLoop=1;jettySize=auto;html=1;" edge="1" parent="1" source="gplAhbZoMSeWkt-ECcsY-14" target="gplAhbZoMSeWkt-ECcsY-13">
          <mxGeometry relative="1" as="geometry" />
        </mxCell>
        <mxCell id="gplAhbZoMSeWkt-ECcsY-14" value="&lt;b&gt;Scene&lt;/b&gt;" style="swimlane;fontStyle=0;childLayout=stackLayout;horizontal=1;startSize=40;fillColor=none;horizontalStack=0;resizeParent=1;resizeParentMax=0;resizeLast=0;collapsible=1;marginBottom=0;whiteSpace=wrap;html=1;" vertex="1" parent="1">
          <mxGeometry x="920" y="860" width="120" height="40" as="geometry" />
        </mxCell>
        <mxCell id="gplAhbZoMSeWkt-ECcsY-30" style="edgeStyle=orthogonalEdgeStyle;rounded=0;orthogonalLoop=1;jettySize=auto;html=1;endArrow=block;endFill=0;" edge="1" parent="1" source="gplAhbZoMSeWkt-ECcsY-15" target="gplAhbZoMSeWkt-ECcsY-16">
          <mxGeometry relative="1" as="geometry" />
        </mxCell>
        <mxCell id="gplAhbZoMSeWkt-ECcsY-15" value="&lt;b&gt;FlightPath&lt;/b&gt;&lt;div&gt;&lt;b&gt;Generator&lt;/b&gt;&lt;/div&gt;" style="swimlane;fontStyle=0;childLayout=stackLayout;horizontal=1;startSize=40;fillColor=none;horizontalStack=0;resizeParent=1;resizeParentMax=0;resizeLast=0;collapsible=1;marginBottom=0;whiteSpace=wrap;html=1;" vertex="1" parent="1">
          <mxGeometry x="1080" y="1040" width="120" height="40" as="geometry" />
        </mxCell>
        <mxCell id="gplAhbZoMSeWkt-ECcsY-16" value="&lt;b&gt;XMLGenerator&lt;/b&gt;" style="swimlane;fontStyle=0;childLayout=stackLayout;horizontal=1;startSize=40;fillColor=none;horizontalStack=0;resizeParent=1;resizeParentMax=0;resizeLast=0;collapsible=1;marginBottom=0;whiteSpace=wrap;html=1;" vertex="1" parent="1">
          <mxGeometry x="1080" y="1120" width="120" height="40" as="geometry" />
        </mxCell>
        <mxCell id="gplAhbZoMSeWkt-ECcsY-17" value="&lt;b&gt;CloudNoiseAdder&lt;/b&gt;" style="swimlane;fontStyle=0;childLayout=stackLayout;horizontal=1;startSize=40;fillColor=none;horizontalStack=0;resizeParent=1;resizeParentMax=0;resizeLast=0;collapsible=1;marginBottom=0;whiteSpace=wrap;html=1;" vertex="1" parent="1">
          <mxGeometry x="1400" y="860" width="120" height="40" as="geometry" />
        </mxCell>
        <mxCell id="gplAhbZoMSeWkt-ECcsY-18" value="&lt;b&gt;SurveyExecutor&lt;/b&gt;" style="swimlane;fontStyle=0;childLayout=stackLayout;horizontal=1;startSize=40;fillColor=none;horizontalStack=0;resizeParent=1;resizeParentMax=0;resizeLast=0;collapsible=1;marginBottom=0;whiteSpace=wrap;html=1;" vertex="1" parent="1">
          <mxGeometry x="1400" y="960" width="120" height="40" as="geometry" />
        </mxCell>
        <mxCell id="gplAhbZoMSeWkt-ECcsY-19" value="&lt;b&gt;CloudMerger&lt;/b&gt;" style="swimlane;fontStyle=0;childLayout=stackLayout;horizontal=1;startSize=40;fillColor=none;horizontalStack=0;resizeParent=1;resizeParentMax=0;resizeLast=0;collapsible=1;marginBottom=0;whiteSpace=wrap;html=1;" vertex="1" parent="1">
          <mxGeometry x="1560" y="960" width="120" height="40" as="geometry" />
        </mxCell>
        <mxCell id="gplAhbZoMSeWkt-ECcsY-34" style="edgeStyle=orthogonalEdgeStyle;rounded=0;orthogonalLoop=1;jettySize=auto;html=1;endArrow=block;endFill=0;" edge="1" parent="1" source="gplAhbZoMSeWkt-ECcsY-20" target="gplAhbZoMSeWkt-ECcsY-19">
          <mxGeometry relative="1" as="geometry" />
        </mxCell>
        <mxCell id="gplAhbZoMSeWkt-ECcsY-20" value="&lt;b&gt;UniqueKeeper&lt;/b&gt;&lt;div&gt;&lt;b&gt;Merger&lt;/b&gt;&lt;/div&gt;" style="swimlane;fontStyle=0;childLayout=stackLayout;horizontal=1;startSize=40;fillColor=none;horizontalStack=0;resizeParent=1;resizeParentMax=0;resizeLast=0;collapsible=1;marginBottom=0;whiteSpace=wrap;html=1;" vertex="1" parent="1">
          <mxGeometry x="1560" y="1040" width="120" height="40" as="geometry" />
        </mxCell>
        <mxCell id="gplAhbZoMSeWkt-ECcsY-21" value="&lt;b&gt;Reconstruction&lt;/b&gt;&lt;div&gt;&lt;b&gt;Executor&lt;/b&gt;&lt;/div&gt;" style="swimlane;fontStyle=0;childLayout=stackLayout;horizontal=1;startSize=40;fillColor=none;horizontalStack=0;resizeParent=1;resizeParentMax=0;resizeLast=0;collapsible=1;marginBottom=0;whiteSpace=wrap;html=1;" vertex="1" parent="1">
          <mxGeometry x="1720" y="960" width="120" height="40" as="geometry" />
        </mxCell>
        <mxCell id="gplAhbZoMSeWkt-ECcsY-43" style="edgeStyle=elbowEdgeStyle;rounded=0;orthogonalLoop=1;jettySize=auto;elbow=vertical;html=1;strokeColor=default;align=center;verticalAlign=middle;fontFamily=Helvetica;fontSize=11;fontColor=default;labelBackgroundColor=default;endArrow=classic;" edge="1" parent="1" source="gplAhbZoMSeWkt-ECcsY-22" target="gplAhbZoMSeWkt-ECcsY-5">
          <mxGeometry relative="1" as="geometry">
            <Array as="points">
              <mxPoint x="1460" y="700" />
            </Array>
          </mxGeometry>
        </mxCell>
        <mxCell id="gplAhbZoMSeWkt-ECcsY-22" value="&lt;b&gt;Reconstruction&lt;/b&gt;&lt;div&gt;&lt;b&gt;Optimization&lt;/b&gt;&lt;/div&gt;" style="swimlane;fontStyle=0;childLayout=stackLayout;horizontal=1;startSize=40;fillColor=none;horizontalStack=0;resizeParent=1;resizeParentMax=0;resizeLast=0;collapsible=1;marginBottom=0;whiteSpace=wrap;html=1;" vertex="1" parent="1">
          <mxGeometry x="1560" y="760" width="120" height="40" as="geometry" />
        </mxCell>
        <mxCell id="gplAhbZoMSeWkt-ECcsY-33" style="edgeStyle=orthogonalEdgeStyle;rounded=0;orthogonalLoop=1;jettySize=auto;html=1;" edge="1" parent="1" source="gplAhbZoMSeWkt-ECcsY-23" target="gplAhbZoMSeWkt-ECcsY-21">
          <mxGeometry relative="1" as="geometry" />
        </mxCell>
        <mxCell id="gplAhbZoMSeWkt-ECcsY-23" value="&lt;b&gt;Reconstruction&lt;/b&gt;" style="swimlane;fontStyle=0;childLayout=stackLayout;horizontal=1;startSize=40;fillColor=none;horizontalStack=0;resizeParent=1;resizeParentMax=0;resizeLast=0;collapsible=1;marginBottom=0;whiteSpace=wrap;html=1;" vertex="1" parent="1">
          <mxGeometry x="1720" y="860" width="120" height="40" as="geometry" />
        </mxCell>
        <mxCell id="gplAhbZoMSeWkt-ECcsY-24" value="&lt;b&gt;Evaluator&lt;/b&gt;" style="swimlane;fontStyle=0;childLayout=stackLayout;horizontal=1;startSize=40;fillColor=none;horizontalStack=0;resizeParent=1;resizeParentMax=0;resizeLast=0;collapsible=1;marginBottom=0;whiteSpace=wrap;html=1;" vertex="1" parent="1">
          <mxGeometry x="1880" y="860" width="120" height="40" as="geometry" />
        </mxCell>
      </root>
    </mxGraphModel>
  </diagram>
</mxfile>
